<svg width="22" height="20" viewBox="0 0 22 20" fill="none" xmlns="http://www.w3.org/2000/svg">
<path fill-rule="evenodd" clip-rule="evenodd" d="M7.51958 0.000183105C7.50683 -6.16391e-05 7.49411 -6.04301e-05 7.48143 0.000183105H5.55367C4.31643 0.000183105 3.20609 0.759728 2.75766 1.91284L0.969714 6.51041C0.535327 7.62741 1.01258 8.85241 2.00146 9.41232V17.0002C2.00146 18.657 3.34461 20.0002 5.00147 20.0002H17.0015C18.6583 20.0002 20.0015 18.657 20.0015 17.0002V9.41232C20.9904 8.85242 21.4676 7.62742 21.0332 6.51041L19.2453 1.91284C18.7969 0.75973 17.6865 0.000183105 16.4493 0.000183105H14.5216C14.5089 -6.04301e-05 14.4961 -6.16391e-05 14.4834 0.000183105H7.51958ZM18.0015 9.73862C17.5529 9.68608 17.1133 9.55611 16.703 9.35097L16.0019 9.00041L16.0009 9.00041L15.3584 9.2574C14.1664 9.73422 12.8366 9.73422 11.6445 9.2574L11.0015 9.00018L10.3584 9.2574C9.16637 9.73422 7.83657 9.73422 6.64452 9.2574L6.00205 9.00041L6.00101 9.00041L5.2999 9.35097C4.88961 9.55612 4.45 9.68608 4.00146 9.73862V17.0002C4.00146 17.5524 4.44918 18.0002 5.00147 18.0002H7.00146V15.0002C7.00146 13.3433 8.34461 12.0002 10.0015 12.0002H12.0015C13.6583 12.0002 15.0015 13.3433 15.0015 15.0002V18.0002H17.0015C17.5537 18.0002 18.0015 17.5524 18.0015 17.0002V9.73862ZM16.8959 7.21133C16.8808 7.20379 16.8657 7.19644 16.8504 7.18931L15.7385 2.00018H16.4493C16.8617 2.00018 17.2318 2.25337 17.3813 2.63774L19.1692 7.23531C19.2466 7.43429 19.1319 7.65603 18.9247 7.70781C18.4791 7.81922 18.0083 7.76754 17.5975 7.56211L16.8959 7.21133ZM14.8317 7.31401L13.6931 2.00018H12.0015V7.24612L12.3873 7.40045C13.1025 7.68654 13.9004 7.68654 14.6156 7.40045L14.8317 7.31401ZM10.0015 2.00018H8.30991L7.17123 7.31402L7.3873 7.40045C8.10253 7.68654 8.90041 7.68654 9.61564 7.40045L10.0015 7.24612V2.00018ZM5.15256 7.18929L6.26451 2.00018H5.55367C5.14126 2.00018 4.77114 2.25336 4.62167 2.63773L2.83372 7.2353C2.75634 7.43429 2.87107 7.65603 3.07819 7.70781C3.52383 7.81922 3.99462 7.76754 4.40548 7.56211L5.10704 7.21133C5.12214 7.20378 5.13731 7.19643 5.15256 7.18929ZM13.0015 15.0002V18.0002H9.00146V15.0002C9.00146 14.4479 9.44918 14.0002 10.0015 14.0002H12.0015C12.5537 14.0002 13.0015 14.4479 13.0015 15.0002Z" fill="rgba(45, 96, 255, 1)"/>
</svg>
