<svg width="320" height="243" viewBox="0 0 320 243" fill="none" xmlns="http://www.w3.org/2000/svg">
<g clip-path="url(#clip0_309_27828)">
<path d="M298.539 215.297C324.084 219.632 330.738 227.677 288.312 233.845C238.382 241.085 181.531 232.415 147.276 236.973C113.067 241.532 71.6227 244.08 48.5783 242.561C3.20403 239.521 -6.04056 208.592 30.0892 202.424C62.8694 196.838 163.711 216.682 187.827 215.564C212.569 214.403 267.366 210.023 298.539 215.297Z" fill="#141414" fill-opacity="0.2"/>
<path d="M234.099 32.2714C234.233 32.2714 234.322 32.2267 234.411 32.1373L237.984 28.5618C238.163 28.383 238.163 28.1148 237.984 27.9361C237.805 27.7573 237.537 27.7573 237.358 27.9361L234.277 31.02L231.999 25.6119C231.954 25.4779 231.821 25.3884 231.687 25.3438C231.553 25.2991 231.374 25.3438 231.284 25.4332L228.516 28.0254L225.569 21.7681C225.524 21.6341 225.39 21.5447 225.211 21.5C225.077 21.5 224.899 21.5447 224.809 21.6341L222.13 24.7627C221.951 24.9414 221.995 25.2544 222.174 25.3885C222.353 25.5672 222.665 25.5225 222.8 25.3438L225.032 22.7515L227.935 28.964C227.98 29.0981 228.114 29.1875 228.248 29.2322C228.382 29.2768 228.516 29.2322 228.65 29.0981L231.374 26.5058L233.652 31.9585C233.696 32.0926 233.83 32.182 233.964 32.2267C234.009 32.2714 234.054 32.2714 234.099 32.2714Z" fill="#2E3433"/>
<path d="M68.8569 56.9862C68.9016 56.8968 68.9462 56.7627 68.9016 56.6287L67.5617 51.7569C67.5171 51.5335 67.2491 51.3994 67.0258 51.4441C66.8025 51.4888 66.6685 51.7569 66.7132 51.9804L67.8744 56.2264L62.0686 55.5113C61.9346 55.5113 61.756 55.556 61.6666 55.6454C61.5774 55.7348 61.5327 55.9136 61.5773 56.0477L62.4705 59.7126L55.5929 59.1763C55.459 59.1763 55.2803 59.2209 55.191 59.355C55.1017 59.4891 55.057 59.6232 55.1463 59.7573L56.5308 63.6457C56.6201 63.8692 56.8881 64.0033 57.1114 63.9139C57.3346 63.8245 57.4686 63.5564 57.3793 63.3329L56.2182 60.1149L63.0511 60.6512C63.1851 60.6512 63.3191 60.6065 63.4084 60.5171C63.4977 60.4278 63.5423 60.249 63.4977 60.1149L62.6045 56.4499L68.455 57.165C68.5889 57.165 68.7676 57.1203 68.8569 57.0309C68.8122 57.0309 68.8122 56.9862 68.8569 56.9862Z" fill="#2E3433"/>
<path d="M95.1617 75.8035C96.9034 75.8035 98.2875 74.4176 98.2875 72.6745C98.2875 70.9314 96.9034 69.5459 95.1617 69.5459C93.4201 69.5459 92.0352 70.9314 92.0352 72.6745C92.0352 74.4176 93.4201 75.8035 95.1617 75.8035ZM95.1617 70.4398C96.4117 70.4398 97.395 71.4231 97.395 72.6745C97.395 73.926 96.4117 74.9093 95.1617 74.9093C93.9109 74.9093 92.9285 73.926 92.9285 72.6745C92.9285 71.4678 93.9109 70.4398 95.1617 70.4398Z" fill="#2E3433"/>
<path d="M272.282 82.5522C274.024 82.5522 275.409 81.1662 275.409 79.4232C275.409 77.6802 274.024 76.2949 272.282 76.2949C270.54 76.2949 269.156 77.6802 269.156 79.4232C269.156 81.1662 270.54 82.5522 272.282 82.5522ZM272.282 77.1882C273.533 77.1882 274.515 78.1714 274.515 79.4232C274.515 80.6749 273.533 81.6582 272.282 81.6582C271.032 81.6582 270.05 80.6749 270.05 79.4232C270.05 78.2164 271.032 77.1882 272.282 77.1882Z" fill="#2E3433"/>
<path d="M308.811 52.3388L311.223 50.7745L308.811 49.2549C308.588 49.1209 308.543 48.8527 308.677 48.6292C308.811 48.4057 309.079 48.361 309.302 48.4951L312.071 50.2382L314.84 48.4504C315.063 48.3163 315.331 48.361 315.465 48.5845C315.599 48.808 315.554 49.0762 315.331 49.2102L312.919 50.7745L315.331 52.2941C315.554 52.4282 315.599 52.6964 315.465 52.9199C315.376 53.0539 315.242 53.1433 315.108 53.1433C315.018 53.1433 314.929 53.1433 314.884 53.0539L312.115 51.3109L309.347 53.0986C309.258 53.1433 309.168 53.188 309.124 53.188C308.989 53.188 308.855 53.0986 308.766 52.9645C308.543 52.7411 308.588 52.4729 308.811 52.3388Z" fill="#2E3433"/>
<path d="M134.951 26.5048L137.363 24.9406L134.951 23.4209C134.728 23.2868 134.684 23.0187 134.817 22.7952C134.951 22.5718 135.22 22.5271 135.443 22.6611L138.212 24.4042L140.98 22.6164C141.204 22.4824 141.472 22.5271 141.606 22.7505C141.74 22.974 141.695 23.2421 141.472 23.3762L139.06 24.9406L141.472 26.4601C141.695 26.5942 141.74 26.8624 141.606 27.0859C141.516 27.22 141.383 27.3094 141.249 27.3094C141.16 27.3094 141.07 27.3094 141.025 27.22L138.256 25.4769L135.487 27.2647C135.398 27.3094 135.309 27.3541 135.264 27.3541C135.13 27.3541 134.996 27.2647 134.907 27.1306C134.684 26.9071 134.773 26.6389 134.951 26.5048Z" fill="#2E3433"/>
<path d="M225.834 73.7022C225.879 73.7022 225.924 73.7022 225.924 73.7022C234.587 73.5682 240.661 62.5286 246.511 51.8466C251.379 42.9524 256.024 34.5498 261.026 34.952C264.197 35.2202 270.628 38.751 283.177 54.3048C290.725 63.6906 296.977 73.0765 297.021 73.1659L298.049 72.8084C297.021 71.2887 272.95 35.0414 261.115 34.1475C255.22 33.7006 250.665 41.9691 245.395 51.5784C239.947 61.5006 233.738 72.8084 225.879 72.8978C225.834 72.8978 225.834 72.8978 225.789 72.8978C222.172 72.8978 218.42 69.2775 214.401 61.8135C210.739 55.0646 207.434 46.215 204.218 37.6337C199.082 23.9571 194.617 12.1578 189.704 10.5934C188.811 10.3253 187.873 10.3253 186.935 10.6381C181.085 12.4706 174.654 25.0298 168.446 37.1868C165.811 42.282 163.355 47.109 161.167 50.5951C158.13 55.4669 156.745 55.7797 156.298 55.6903C151.118 54.6624 113.381 24.1806 94.1772 8.22461L93.3281 8.80563C95.6063 10.6828 149.198 55.154 155.986 56.5395C159.246 57.21 163.087 50.1035 169.518 37.4996C175.368 26.0578 181.978 13.141 187.382 11.4426C188.052 11.2191 188.677 11.2191 189.258 11.3979C193.679 12.7835 198.279 24.9851 203.102 37.9019C209.801 55.4669 216.679 73.7022 225.834 73.7022Z" fill="#2E3433"/>
<path d="M100.924 21.319L101.996 20.9614L94.0015 8.49161L106.953 14.9277L107.578 14.2125L91.1875 6.07812L100.924 21.319Z" fill="#2E3433"/>
<path d="M196.583 83.4005C196.717 83.4005 196.806 83.3555 196.895 83.2662L200.468 79.691C200.647 79.5117 200.647 79.244 200.468 79.0647C200.289 78.8862 200.022 78.8862 199.842 79.0647L196.761 82.1487L194.483 76.7405C194.439 76.607 194.305 76.517 194.171 76.4727C194.037 76.4277 193.858 76.4727 193.769 76.562L191 79.154L188.053 72.897C188.008 72.763 187.874 72.6736 187.695 72.6289C187.561 72.6289 187.383 72.6736 187.294 72.763L184.614 75.8915C184.435 76.0707 184.479 76.3835 184.659 76.517C184.837 76.6962 185.149 76.6512 185.284 76.4727L187.517 73.8804L190.419 80.093C190.464 80.2272 190.598 80.3165 190.732 80.3607C190.866 80.4057 191 80.3607 191.134 80.2272L193.858 77.6345L196.136 83.0877C196.181 83.2212 196.315 83.3112 196.448 83.3555C196.538 83.4005 196.538 83.4005 196.583 83.4005Z" fill="#2E3433"/>
<path d="M252.493 77.991C252.225 79.9125 251.6 81.7455 250.617 83.31C250.126 84.0697 249.59 84.8295 248.965 85.455C248.34 86.0805 247.67 86.6617 246.955 87.198C246.017 87.8685 244.99 88.4047 243.918 88.8067C242.221 89.433 240.346 89.7457 238.425 89.6115C238.112 89.6115 237.845 89.5672 237.532 89.5222C235.701 89.2987 234.048 88.7175 232.53 87.8235C231.682 87.3322 230.923 86.751 230.208 86.1255C227.126 83.31 225.429 79.0635 225.965 74.5942C226.144 73.164 226.546 71.8678 227.126 70.6164C227.93 68.9179 229.091 67.3984 230.476 66.1916C231.324 65.4318 232.307 64.8061 233.334 64.3144C234.897 63.5546 236.683 63.063 238.514 62.9736C239.318 62.9289 240.122 62.9736 240.926 63.063C248.295 64.0015 253.43 70.7057 252.493 77.991Z" fill="#FFAF30" stroke="#2E3433" stroke-width="1.5" stroke-miterlimit="10"/>
<path d="M245.579 84.6175C250.172 81.1202 251.062 74.5586 247.568 69.962C244.073 65.3654 237.517 64.4743 232.923 67.9717C228.331 71.4692 227.44 78.031 230.935 82.627C234.43 87.2237 240.986 88.1147 245.579 84.6175Z" fill="#FFAF30"/>
<path fill-rule="evenodd" clip-rule="evenodd" d="M240.614 71.3944C239.634 71.2496 238.725 71.9257 238.58 72.9066C238.488 73.5276 238.816 74.1258 239.586 74.5918C239.841 74.7461 240.068 74.8527 240.338 74.9797C240.523 75.0664 240.728 75.1632 240.977 75.2907C241.505 75.5622 242.126 75.9364 242.61 76.5537C243.314 77.4507 243.644 78.6177 243.474 79.7682C243.129 82.1059 240.956 83.7222 238.619 83.3772C237.386 83.1949 236.351 82.5027 235.702 81.5419C235.367 81.0469 235.496 80.3734 235.992 80.0374C236.486 79.7022 237.159 79.8319 237.494 80.3277C237.817 80.8047 238.325 81.1437 238.935 81.2337C240.089 81.4039 241.163 80.6059 241.333 79.4517C241.412 78.9094 241.257 78.3372 240.908 77.8932L240.906 77.8917C240.712 77.6434 240.426 77.4432 239.988 77.2182C239.876 77.1604 239.731 77.0914 239.57 77.0149C239.223 76.8492 238.801 76.6482 238.467 76.4464H238.466C237.256 75.7144 236.174 74.3816 236.438 72.5903C236.758 70.4257 238.768 68.9317 240.93 69.251C242.013 69.411 242.925 69.9975 243.527 70.8039C243.885 71.283 243.787 71.9619 243.308 72.3202C242.83 72.6785 242.151 72.5806 241.794 72.1015C241.515 71.7292 241.103 71.4664 240.614 71.3944Z" fill="#2E3433"/>
<path fill-rule="evenodd" clip-rule="evenodd" d="M241.215 67.3282C241.807 67.4155 242.216 67.966 242.128 68.5579L241.845 70.4806C241.758 71.0724 241.207 71.4814 240.616 71.3941C240.025 71.3068 239.616 70.7562 239.703 70.1643L239.987 68.2417C240.074 67.6498 240.624 67.2408 241.215 67.3282Z" fill="#2E3433"/>
<path fill-rule="evenodd" clip-rule="evenodd" d="M239.146 81.3632C239.737 81.451 240.145 82.0015 240.058 82.5932L239.712 84.9422C239.624 85.534 239.074 85.9435 238.483 85.8557C237.892 85.7687 237.483 85.2182 237.57 84.6265L237.916 82.2767C238.004 81.685 238.554 81.2762 239.146 81.3632Z" fill="#2E3433"/>
<path d="M222.671 49.6116C222.85 50.7736 222.76 51.8909 222.448 52.919C222.314 53.4553 222.091 53.9469 221.867 54.3938C221.644 54.8408 221.331 55.2878 221.019 55.69C220.572 56.2263 220.081 56.6733 219.546 57.0755C218.696 57.7013 217.67 58.1929 216.553 58.4164C216.374 58.4611 216.196 58.5058 216.017 58.5058C214.945 58.6846 213.918 58.5952 212.936 58.3717C212.4 58.2376 211.864 58.0142 211.327 57.7907C209.139 56.6733 207.487 54.528 207.085 51.9357C206.951 51.0865 206.951 50.282 207.085 49.5222C207.263 48.4048 207.666 47.3769 208.291 46.4829C208.648 45.9019 209.095 45.4103 209.586 44.9633C210.345 44.2482 211.283 43.7118 212.31 43.3543C212.757 43.2202 213.203 43.0861 213.695 42.9968C218.026 42.371 222.001 45.3209 222.671 49.6116Z" fill="#FFAF30" stroke="#2E3433" stroke-width="1.5" stroke-miterlimit="10"/>
<path d="M220.977 49.8768C221.467 53.2289 219.145 56.4022 215.796 56.8939C212.446 57.3855 209.275 55.0614 208.784 51.7093C208.293 48.3571 210.615 45.1838 213.965 44.6922C217.314 44.1559 220.485 46.48 220.977 49.8768Z" fill="#FFAF30"/>
<path d="M217.179 50.685C216.867 50.4168 216.465 50.2827 216.019 50.238V50.1486C216.733 49.7464 217.045 49.1654 216.912 48.4503C216.867 48.1374 216.733 47.8692 216.554 47.6457C216.42 47.4669 216.197 47.3329 215.929 47.2435C215.839 47.1988 215.706 47.1541 215.527 47.1541L215.304 45.7686L214.455 45.9027L214.634 47.1541C214.455 47.1541 214.232 47.1988 214.009 47.2435H213.964L213.785 45.9921L212.937 46.1261L213.115 47.3776L211.553 47.601C211.508 47.601 211.508 47.6457 211.508 47.6457L211.553 47.9139C211.553 47.9586 211.597 47.9586 211.597 47.9586L212.49 47.9139C212.535 47.9139 212.535 47.9139 212.535 47.9586L213.428 53.9924C213.428 54.0371 213.428 54.0371 213.384 54.0371L212.49 54.2606C212.445 54.2606 212.445 54.3052 212.445 54.3052L212.49 54.5734C212.49 54.6181 212.535 54.6181 212.535 54.6181L214.098 54.3946L214.277 55.7355L215.125 55.6014L214.947 54.2606L215.214 54.2159C215.349 54.2159 215.483 54.1712 215.572 54.1712L215.75 55.512L216.599 55.3779L216.376 53.903C216.956 53.6795 217.314 53.3667 217.537 52.9197C217.715 52.5621 217.76 52.2046 217.715 51.8023C217.805 51.4001 217.582 50.9979 217.179 50.685ZM214.41 47.6904C214.544 47.6904 214.634 47.6904 214.768 47.6904C215.036 47.6904 215.259 47.7351 215.438 47.8692C215.527 47.9139 215.616 48.0033 215.706 48.0927C215.839 48.2715 215.974 48.495 216.019 48.7631C216.063 49.0313 216.019 49.2994 215.929 49.5229C215.839 49.7017 215.75 49.8358 215.572 49.9698C215.438 50.0592 215.304 50.1486 215.125 50.238C214.947 50.3274 214.724 50.3721 214.5 50.4168C214.455 50.4168 214.411 50.4168 214.321 50.4615L214.009 50.5062C213.964 50.5062 213.964 50.5062 213.964 50.4615L213.607 47.9586C213.607 47.9139 213.607 47.9139 213.651 47.9139L214.054 47.8692H214.143L214.41 47.6904ZM216.465 53.322C216.286 53.5008 215.974 53.6348 215.661 53.7242C215.527 53.7689 215.349 53.8136 215.17 53.8136L214.991 53.8583L214.5 53.9477C214.455 53.9477 214.455 53.9477 214.455 53.903L214.009 50.9085C214.009 50.8638 214.009 50.8638 214.054 50.8638L214.5 50.7744C214.5 50.7744 214.5 50.7744 214.544 50.7744C214.768 50.7297 214.991 50.7297 215.214 50.7297C215.572 50.7297 215.884 50.8191 216.153 50.9532C216.554 51.1766 216.778 51.5789 216.867 52.1599C216.912 52.6068 216.778 53.0091 216.465 53.322Z" fill="#2E3433"/>
<path d="M270.572 24.6271C270.125 25.6998 269.455 26.5937 268.652 27.3535C268.25 27.711 267.804 28.0239 267.357 28.3368C266.91 28.605 266.419 28.8285 265.972 29.0072C265.347 29.2307 264.677 29.3648 264.007 29.4542C262.935 29.5436 261.819 29.4095 260.747 29.0519C260.569 29.0072 260.435 28.9179 260.256 28.8732C259.273 28.4709 258.38 27.8451 257.711 27.13C257.308 26.7278 256.951 26.2809 256.638 25.7892C255.343 23.6886 255.031 21.0069 256.058 18.5487C256.371 17.7888 256.817 17.0738 257.353 16.4927C258.067 15.6435 258.961 14.9731 259.943 14.5262C260.569 14.258 261.194 14.0345 261.864 13.9005C262.89 13.7217 263.963 13.7217 264.99 13.9451C265.436 14.0345 265.883 14.2133 266.33 14.3921C270.394 16.0011 272.269 20.6046 270.572 24.6271Z" fill="#FFAF30" stroke="#2E3433" stroke-width="1.5" stroke-miterlimit="10"/>
<path d="M264.379 27.6158C267.734 27.0414 269.989 23.8539 269.415 20.4963C268.841 17.1385 265.656 14.8821 262.301 15.4565C258.946 16.0308 256.691 19.2183 257.265 22.576C257.839 25.9338 261.024 28.1901 264.379 27.6158Z" fill="#FFAF30"/>
<path d="M265.349 22.6586C265.215 22.2563 264.946 21.9435 264.589 21.6753L264.634 21.5859C265.482 21.5859 266.018 21.2731 266.286 20.6473C266.42 20.3344 266.465 20.0663 266.42 19.7981C266.375 19.5747 266.286 19.3512 266.108 19.1277C266.018 19.0383 265.929 18.949 265.84 18.8596L266.375 17.5634L265.572 17.2058L265.08 18.3679C264.902 18.2785 264.723 18.1891 264.5 18.0997H264.455L264.946 16.9377L264.143 16.5801L263.651 17.7422L262.222 17.1165C262.177 17.1165 262.177 17.1165 262.133 17.1612L262.044 17.4293C262.044 17.474 262.044 17.474 262.088 17.5187L262.892 17.9656C262.937 17.9656 262.937 18.0103 262.937 18.055L260.57 23.6866C260.57 23.7313 260.526 23.7313 260.481 23.7313L259.632 23.4631C259.587 23.4631 259.587 23.4631 259.542 23.5078L259.453 23.776C259.453 23.8207 259.453 23.8207 259.498 23.8654L260.927 24.4911L260.391 25.7425L261.195 26.1001L261.731 24.8486L261.999 24.938C262.133 24.9827 262.222 25.0274 262.356 25.0721L261.821 26.3236L262.624 26.6811L263.205 25.3402C263.785 25.4296 264.276 25.3402 264.679 25.1168C265.036 24.8933 265.259 24.6252 265.393 24.2676C265.527 23.5972 265.527 23.1502 265.349 22.6586ZM264.545 18.6808C264.634 18.7255 264.768 18.7702 264.857 18.8596C265.08 18.9937 265.215 19.1724 265.349 19.3512C265.393 19.4406 265.438 19.5747 265.482 19.664C265.527 19.8875 265.482 20.111 265.393 20.3791C265.304 20.6473 265.125 20.8261 264.946 20.9602C264.812 21.0496 264.634 21.139 264.455 21.139C264.321 21.139 264.143 21.139 263.964 21.139C263.786 21.0943 263.562 21.0496 263.339 20.9602C263.294 20.9602 263.25 20.9155 263.16 20.9155L262.847 20.7814C262.803 20.7814 262.803 20.7367 262.803 20.692L263.785 18.3679C263.785 18.3232 263.83 18.3232 263.875 18.3232L264.232 18.502L264.321 18.5467L264.545 18.6808ZM263.383 24.5358C263.116 24.5805 262.803 24.5358 262.446 24.4464C262.311 24.4017 262.133 24.357 261.999 24.2676L261.821 24.2229L261.374 24.0441C261.329 24.0441 261.329 23.9995 261.329 23.9548L262.491 21.1837C262.491 21.139 262.535 21.139 262.58 21.139L263.026 21.3178C263.026 21.3178 263.026 21.3178 263.071 21.3178C263.294 21.4072 263.473 21.4966 263.651 21.6306C263.964 21.8094 264.187 22.0329 264.321 22.301C264.545 22.7033 264.545 23.1502 264.321 23.6866C264.143 24.1782 263.83 24.4464 263.383 24.5358Z" fill="#2E3433"/>
<path d="M318.637 123.446C318.637 123.446 318.637 123.401 318.637 123.356V123.446Z" fill="#DBE0E6" stroke="#2E3433" stroke-width="1.6611" stroke-miterlimit="10" stroke-linecap="round" stroke-linejoin="round"/>
<path d="M318.637 123.36C318.637 123.315 318.637 123.27 318.637 123.18C318.592 123.225 318.637 123.27 318.637 123.36Z" fill="#DBE0E6" stroke="#2E3433" stroke-width="1.6611" stroke-miterlimit="10" stroke-linecap="round" stroke-linejoin="round"/>
<path d="M293.984 192.322V192.412C294.967 192.367 295.592 192.322 295.86 192.277C295.279 192.322 294.609 192.322 293.984 192.322Z" fill="#DBE0E6" stroke="#2E3433" stroke-width="1.6611" stroke-miterlimit="10" stroke-linecap="round" stroke-linejoin="round"/>
<path d="M0.792969 122.909C1.55217 118.574 10.9307 119.692 15.6647 124.519C24.15 133.144 31.6975 165.995 33.4839 181.728C33.9305 185.839 34.0198 188.745 33.5732 189.817C32.9033 191.515 29.1072 192.231 25.3558 192.275V192.365L22.3636 216.991H27.7228C27.7228 216.991 36.9227 195.895 37.1013 195.895H159.692C159.692 195.895 282.686 195.896 282.864 195.851L291.662 217.081H296.976L293.984 192.454V192.365C290.277 192.32 286.436 191.605 285.767 189.907C285.365 188.878 285.41 185.929 285.856 181.817C287.598 166.084 295.19 133.234 303.675 124.608C306.533 121.702 311.044 120.139 314.349 120.272C314.438 120.272 314.527 120.272 314.617 120.272C314.751 120.272 314.841 120.272 314.974 120.317C315.063 120.317 315.197 120.362 315.287 120.362C315.421 120.362 315.555 120.406 315.689 120.451C315.778 120.451 315.867 120.496 315.957 120.496C316.046 120.496 316.091 120.541 316.136 120.541C316.225 120.586 316.314 120.586 316.403 120.63C316.582 120.675 316.716 120.764 316.85 120.809C316.939 120.853 316.984 120.898 317.073 120.943C317.207 120.988 317.296 121.077 317.386 121.166C317.475 121.211 317.52 121.255 317.609 121.345C317.654 121.345 317.654 121.39 317.698 121.39C317.743 121.435 317.832 121.524 317.877 121.569C317.921 121.613 317.966 121.658 318.011 121.702C318.056 121.747 318.101 121.792 318.145 121.837C318.19 121.926 318.235 121.971 318.279 122.06C318.324 122.105 318.324 122.149 318.368 122.239C318.413 122.284 318.413 122.329 318.413 122.373C318.413 122.418 318.458 122.462 318.458 122.552C318.458 122.596 318.502 122.641 318.502 122.731C318.502 122.776 318.502 122.776 318.547 122.82C318.547 122.909 318.591 122.999 318.591 123.088C318.502 122.239 317.966 120.094 315.421 118.216C313.143 116.563 297.825 108.964 288.535 104.54C282.864 116.473 272.726 129.569 268.841 152.274L269.243 152.542C269.243 152.542 276.21 155.938 279.738 157.995H279.47C282.239 157.995 284.516 160.229 284.516 163.045V167.917C284.516 170.688 282.283 172.967 279.47 172.967H278.934C282.016 172.967 284.471 175.471 284.471 178.51V187.18C284.471 189.415 283.176 191.382 281.346 192.365C280.988 192.544 280.586 192.722 280.184 192.812C279.693 192.946 279.201 193.036 278.666 193.036H159.647V192.991H40.6741C40.1382 192.991 39.6469 192.901 39.1557 192.767C38.7538 192.678 38.3518 192.499 37.9945 192.32C36.1188 191.337 34.8237 189.415 34.8237 187.135V178.465C34.8237 175.381 37.3246 172.923 40.3615 172.923H39.8256C37.0566 172.923 34.779 170.688 34.779 167.872V163.045C34.779 160.274 37.0566 157.995 39.8256 157.995H39.5576C43.0858 155.894 50.0527 152.542 50.0527 152.542L50.4546 152.274C46.5692 129.569 36.4314 116.473 30.7596 104.54C21.4704 108.964 6.15212 116.563 3.87447 118.216C1.46284 119.959 0.926942 122.016 0.792969 122.909Z" fill="#DBE0E6" stroke="#2E3433" stroke-width="1.6611" stroke-miterlimit="10" stroke-linecap="round" stroke-linejoin="round"/>
<path d="M159.695 102.797V154.554L264.199 154.598C265.806 154.598 268.888 154.331 268.888 154.331C272.774 131.626 282.911 118.53 288.583 106.597C289.387 104.898 290.102 103.244 290.727 101.546C292.692 96.0932 286.395 91.4455 280.634 91.4455H171.843C165.367 91.2662 159.695 95.8697 159.695 102.797Z" fill="white" stroke="#2E3433" stroke-width="1.6611" stroke-miterlimit="10" stroke-linecap="round" stroke-linejoin="round"/>
<path d="M34.8242 163.047V167.919C34.8242 170.689 37.0572 172.969 39.8707 172.969L159.693 173.013H279.47C282.239 173.013 284.517 170.779 284.517 167.963V163.092C284.517 160.32 282.239 158.041 279.47 158.041H255.488C216.768 158.041 159.693 158.041 159.693 158.041C159.693 158.041 102.618 157.996 63.8977 157.996H39.8707C37.1018 157.996 34.8242 160.231 34.8242 163.047Z" fill="white" stroke="#2E3433" stroke-width="1.6611" stroke-miterlimit="10" stroke-linecap="round" stroke-linejoin="round"/>
<path d="M34.8242 178.466V187.137C34.8242 189.372 36.1193 191.339 37.995 192.322C38.3523 192.5 38.7542 192.679 39.1561 192.769C39.6474 192.902 40.1387 192.992 40.6746 192.992L159.693 193.037H278.711C279.247 193.037 279.738 192.947 280.229 192.813C280.632 192.724 281.033 192.545 281.391 192.366C283.267 191.383 284.517 189.461 284.517 187.182V178.511C284.517 175.427 282.016 172.969 278.979 172.969H159.693L40.4067 172.924C37.3251 172.924 34.8242 175.427 34.8242 178.466Z" fill="white" stroke="#2E3433" stroke-width="1.6611" stroke-miterlimit="10" stroke-linecap="round" stroke-linejoin="round"/>
<path d="M39.6016 157.996H63.8965C102.616 157.996 159.692 158.04 159.692 158.04C159.692 158.04 216.767 158.04 255.487 158.04H279.782C276.253 155.939 269.287 152.587 269.287 152.587L159.692 152.542H50.0966C50.0966 152.498 43.1297 155.895 39.6016 157.996Z" fill="#DBE0E6" stroke="#2E3433" stroke-width="1.6611" stroke-miterlimit="10" stroke-linecap="round" stroke-linejoin="round"/>
<path d="M285.768 189.861C286.438 191.56 290.234 192.275 293.985 192.32C294.61 192.32 295.28 192.32 295.905 192.32C295.95 192.32 295.95 192.32 295.994 192.32C298.406 192.23 300.55 191.873 301.399 191.336C307.607 187.493 305.463 175.738 318.503 124.786C318.637 124.295 318.682 123.892 318.637 123.49V123.401C318.637 123.311 318.637 123.221 318.592 123.132C318.592 123.043 318.548 122.954 318.548 122.864C318.548 122.819 318.548 122.819 318.503 122.774C318.503 122.73 318.459 122.641 318.459 122.596C318.459 122.551 318.414 122.507 318.414 122.417C318.414 122.372 318.369 122.327 318.369 122.283C318.325 122.238 318.325 122.149 318.28 122.104C318.236 122.015 318.191 121.97 318.146 121.88C318.101 121.836 318.057 121.791 318.012 121.747C317.967 121.702 317.923 121.658 317.878 121.613C317.833 121.568 317.744 121.478 317.7 121.434C317.655 121.389 317.655 121.389 317.61 121.389C317.521 121.344 317.476 121.255 317.387 121.211C317.297 121.121 317.163 121.076 317.074 120.987C316.985 120.942 316.94 120.897 316.851 120.853C316.717 120.764 316.538 120.719 316.404 120.674C316.315 120.629 316.226 120.629 316.137 120.584C316.092 120.584 316.002 120.54 315.957 120.54C315.868 120.495 315.779 120.495 315.69 120.495C315.556 120.451 315.422 120.451 315.288 120.406C315.198 120.406 315.065 120.361 314.975 120.361C314.842 120.361 314.752 120.317 314.618 120.317C314.528 120.317 314.439 120.317 314.35 120.317C311.045 120.182 306.534 121.747 303.676 124.652C295.191 133.278 287.644 166.128 285.857 181.861C285.411 185.883 285.366 188.834 285.768 189.861Z" fill="white" stroke="#2E3433" stroke-width="1.6611" stroke-miterlimit="10" stroke-linecap="round" stroke-linejoin="round"/>
<path d="M23.3906 192.278C23.614 192.278 24.2839 192.323 25.3557 192.413V192.323C24.7304 192.323 24.0605 192.278 23.3906 192.278Z" fill="#DBE0E6" stroke="#2E3433" stroke-width="1.6611" stroke-miterlimit="10" stroke-linecap="round" stroke-linejoin="round"/>
<path d="M0.75 123.403V123.312C0.75 123.358 0.75 123.403 0.75 123.403Z" fill="#DBE0E6" stroke="#2E3433" stroke-width="1.6611" stroke-miterlimit="10" stroke-linecap="round" stroke-linejoin="round"/>
<path d="M28.6598 99.4915C29.2404 101.145 29.9549 102.844 30.8035 104.542C36.52 116.476 46.613 129.571 50.4984 152.277C50.4984 152.277 53.5353 152.544 55.1877 152.544H159.692V100.788C159.692 93.8605 154.02 89.257 147.589 89.3905H38.7976C32.9918 89.3905 26.6948 94.039 28.6598 99.4915Z" fill="white" stroke="#2E3433" stroke-width="1.6611" stroke-miterlimit="10" stroke-linecap="round" stroke-linejoin="round"/>
<path d="M0.75 123.315V123.404C0.75 123.806 0.794688 124.208 0.884003 124.7C13.9247 175.652 11.781 187.451 17.9887 191.25C18.8372 191.787 20.9362 192.144 23.3031 192.234C23.3031 192.234 23.3478 192.234 23.3925 192.234C24.0177 192.278 24.6876 192.278 25.3575 192.234C29.0643 192.189 32.8604 191.474 33.5749 189.775C33.9768 188.747 33.9322 185.797 33.4856 181.686C31.7439 165.953 24.1517 133.102 15.6664 124.476C10.8877 119.604 1.5539 118.488 0.79468 122.868C0.79468 122.912 0.794665 123.001 0.75 123.046C0.75 123.18 0.75 123.225 0.75 123.315Z" fill="white" stroke="#2E3433" stroke-width="1.6611" stroke-miterlimit="10" stroke-linecap="round" stroke-linejoin="round"/>
<path d="M73.6402 117.221L89.4391 133.95L81.5837 141.38L65.7852 124.65L73.6402 117.221Z" fill="#635BFF" stroke="#2E3433" stroke-width="1.5" stroke-miterlimit="10"/>
<path d="M68.9462 127.47L79.4862 138.599C80.2896 139.448 81.6745 139.404 82.612 138.51L86.4085 134.621C87.3011 133.683 87.346 132.252 86.5419 131.403L76.0022 120.274C75.1988 119.425 73.8141 119.469 72.8763 120.363L69.0802 124.252C68.187 125.146 68.1423 126.621 68.9462 127.47Z" fill="#E4E6EB"/>
<path d="M77.6331 133.37C75.4388 133.309 73.7099 131.479 73.7711 129.283C73.8324 127.087 75.6606 125.356 77.8549 125.418C80.0492 125.479 81.7788 127.309 81.7174 129.505C81.6559 131.701 79.8274 133.431 77.6331 133.37Z" fill="#96999E" stroke="#2E3433" stroke-width="1.5" stroke-miterlimit="10"/>
<path d="M76.2221 128.451C76.4005 128.361 76.5796 128.361 76.7579 128.361C76.9363 128.361 77.1596 128.406 77.3387 128.496C77.4279 128.541 77.6512 128.674 77.9637 128.853L79.3929 127.512C79.2145 127.378 79.0354 127.334 78.8121 127.334C78.6337 127.334 78.4104 127.423 78.1871 127.557L77.7854 126.976C78.1421 126.708 78.4996 126.618 78.902 126.663C79.2145 126.708 79.482 126.842 79.7946 127.11L80.0179 126.887L80.2862 127.155L80.0628 127.378C80.3311 127.736 80.4645 128.049 80.5095 128.361C80.5095 128.808 80.3754 129.211 80.0179 129.524C79.8395 129.702 79.6162 129.837 79.3929 129.881C79.1695 129.926 78.9462 129.926 78.6787 129.881C78.3654 129.792 78.0979 129.657 77.8746 129.479L76.3113 130.954C76.5346 131.133 76.7579 131.222 77.0704 131.178C77.2938 131.178 77.5621 131.043 77.8296 130.82L78.1871 131.401C77.9188 131.625 77.6512 131.758 77.3387 131.803C77.0704 131.848 76.8029 131.848 76.5796 131.758C76.3562 131.669 76.1329 131.535 75.8646 131.311L75.3738 131.758L75.1055 131.49L75.5971 131.043C75.2846 130.686 75.1504 130.284 75.1504 129.837C75.1946 129.39 75.3738 129.032 75.6863 128.719C75.8646 128.63 76.0437 128.541 76.2221 128.451ZM78.3212 129.077C78.5887 129.255 78.857 129.3 79.0354 129.3C79.2145 129.3 79.4378 129.211 79.5712 129.032C79.7503 128.853 79.8395 128.674 79.8395 128.451C79.8395 128.228 79.7946 128.004 79.6612 127.781L78.3212 129.077ZM75.8204 130.015C75.7754 130.284 75.8646 130.507 75.9988 130.731L77.4729 129.3C77.1596 129.121 76.8921 129.032 76.6687 129.032C76.4904 129.032 76.3113 129.121 76.1329 129.3C75.9538 129.524 75.8204 129.747 75.8204 130.015Z" fill="white"/>
<path d="M82.1185 134.038C81.5377 134.619 81.4935 135.513 82.0743 136.138C82.6543 136.719 83.5476 136.764 84.1726 136.183C84.7534 135.602 84.7984 134.708 84.2176 134.082C83.6818 133.501 82.7435 133.501 82.1185 134.038Z" fill="#E4E6EB"/>
<path d="M71.6264 122.955C71.0458 123.536 71.0011 124.43 71.5818 125.056C72.1623 125.637 73.0555 125.681 73.6807 125.1C74.2613 124.519 74.306 123.625 73.7254 123C73.1448 122.374 72.2069 122.374 71.6264 122.955Z" fill="#E4E6EB"/>
<path d="M68.872 117.541L87.357 131.236L80.9262 139.929L62.4414 126.234L68.872 117.541Z" fill="#635BFF" stroke="#2E3433" stroke-width="1.5" stroke-miterlimit="10"/>
<path d="M66.0414 128.406L78.3677 137.524C79.3052 138.24 80.6901 137.927 81.4043 136.899L84.4409 132.384C85.1559 131.312 84.9767 129.882 83.9943 129.166L71.6685 120.048C70.7307 119.334 69.3462 119.646 68.6316 120.675L65.5948 125.189C64.8802 126.261 65.0589 127.736 66.0414 128.406Z" fill="#E4E6EB"/>
<path d="M71.0785 129.255C70.8216 127.073 72.3807 125.096 74.5608 124.839C76.741 124.583 78.7164 126.143 78.9727 128.324C79.2298 130.506 77.671 132.483 75.4909 132.74C73.3108 132.997 71.3354 131.437 71.0785 129.255Z" fill="#96999E" stroke="#2E3433" stroke-width="1.5" stroke-miterlimit="10"/>
<path d="M73.3654 128.139C73.544 128.05 73.7227 127.96 73.9014 127.96C74.08 127.916 74.3033 127.96 74.5265 128.005C74.6605 128.05 74.8839 128.094 75.1966 128.228L76.3574 126.664C76.1341 126.575 75.9557 126.53 75.7774 126.575C75.5983 126.62 75.4199 126.709 75.1966 126.932L74.7052 126.44C75.0175 126.128 75.3307 125.949 75.7324 125.949C76.0449 125.949 76.3574 126.038 76.6699 126.217L76.849 125.949L77.1615 126.173L76.9832 126.44C77.2957 126.753 77.519 127.022 77.5632 127.334C77.6524 127.781 77.5632 128.183 77.2957 128.586C77.1166 128.81 76.9382 128.943 76.7149 129.077C76.4916 129.167 76.2682 129.212 76 129.167C75.6875 129.122 75.3749 129.033 75.1074 128.899L73.812 130.642C74.0353 130.776 74.3033 130.82 74.6159 130.731C74.8392 130.686 75.0624 130.508 75.3307 130.24L75.8216 130.731C75.5983 131 75.3307 131.178 75.0624 131.267C74.7945 131.357 74.5265 131.402 74.3033 131.357C74.08 131.312 73.812 131.223 73.4994 131.044L73.0975 131.58L72.7848 131.357L73.1868 130.82C72.8295 130.508 72.6062 130.15 72.5616 129.748C72.5169 129.301 72.6062 128.899 72.9188 128.541C73.0528 128.363 73.1868 128.228 73.3654 128.139ZM75.5541 128.363C75.8666 128.452 76.0899 128.496 76.3132 128.452C76.4916 128.407 76.6699 128.273 76.8041 128.094C76.9382 127.916 76.9832 127.692 76.9832 127.469C76.9832 127.245 76.849 127.022 76.6699 126.842L75.5541 128.363ZM73.2315 129.748C73.2315 130.016 73.3654 130.24 73.5441 130.418L74.7499 128.765C74.3926 128.63 74.1246 128.586 73.946 128.675C73.7674 128.72 73.5887 128.854 73.4547 129.033C73.2761 129.212 73.2315 129.479 73.2315 129.748Z" fill="white"/>
<path d="M80.1971 132.607C79.7063 133.278 79.8404 134.172 80.5104 134.663C81.1796 135.155 82.0729 135.021 82.5645 134.35C83.0554 133.68 82.922 132.786 82.252 132.295C81.582 131.803 80.6438 131.937 80.1971 132.607Z" fill="#E4E6EB"/>
<path d="M67.8733 123.491C67.382 124.161 67.516 125.055 68.1859 125.547C68.8558 126.038 69.749 125.904 70.2402 125.234C70.7315 124.563 70.5975 123.67 69.9276 123.178C69.2577 122.687 68.3645 122.865 67.8733 123.491Z" fill="#E4E6EB"/>
<path d="M127.671 228.972C127.716 229.642 127.894 230.313 128.341 231.072C131.467 236.615 141.56 238.492 143.168 235.989C143.48 235.497 143.57 234.827 143.302 233.978C143.257 233.754 143.168 233.531 143.123 233.307C141.56 227.05 140.355 217.62 139.952 215.206C139.551 212.703 139.952 202.289 139.952 202.289C130.262 199.875 130.038 200.68 129.948 201.038C128.564 206.67 129.056 215.117 129.1 216.86C129.457 224.279 127.537 226.558 127.671 228.972Z" fill="white" stroke="#2E3433" stroke-width="1.6611" stroke-miterlimit="10" stroke-linecap="round" stroke-linejoin="round"/>
<path d="M164.381 143.649C164.381 143.649 220.787 133.638 228.066 143.649C235.346 153.66 199.751 164.164 193.901 164.119C188.051 164.119 158.129 167.739 158.129 167.739L164.381 143.649Z" fill="#2E3433"/>
<path d="M154.735 168.365C156.03 171.806 155.896 176.991 156.387 181.013C156.477 181.818 156.611 182.577 156.789 183.248C157.817 187.36 160.898 189.952 162.952 189.952C164.56 189.952 162.595 187.404 162.371 183.784C162.327 182.712 162.416 181.594 162.773 180.342C164.471 175.024 168.043 172.968 174.742 169.839C181.441 166.755 171.66 160.051 171.66 160.051C171.66 160.051 168.58 161.616 160.853 160.051C153.172 158.577 153.172 164.253 154.735 168.365Z" fill="white" stroke="#2E3433" stroke-width="1.6611" stroke-miterlimit="10" stroke-linecap="round" stroke-linejoin="round"/>
<path d="M122.089 182.04C123.339 192.856 124.322 200.99 124.813 204.924C127.18 205.46 130.262 206.041 133.923 206.264C137.809 206.488 141.203 206.309 143.793 205.996C143.972 205.951 144.196 205.951 144.374 205.907C145.758 192.186 147.098 178.509 148.483 164.787C151.877 163.849 156.655 162.419 162.104 160.14C170.678 156.564 174.966 154.821 175.725 151.871C176.976 147.178 169.919 140.697 161.166 139.938C154.645 139.356 149.644 142.217 148.438 142.932C146.071 143.826 143.079 145.032 139.774 146.597C137.497 147.714 135.04 149.01 132.494 150.53C129.815 152.139 127.448 153.569 125.662 155.178C119.722 160.542 120.436 167.782 122.089 182.04Z" fill="#96999E" stroke="#2E3433" stroke-width="1.5" stroke-miterlimit="10"/>
<path d="M143.795 205.995C143.974 205.95 144.197 205.95 144.376 205.905C145.76 192.586 147.1 179.223 148.485 165.903C151.879 165.009 156.658 163.579 162.106 161.389C170.234 158.127 174.209 156.429 175.727 153.345C175.906 152.987 177.335 149.903 175.281 146.908C171.931 142.037 162.508 141.768 161.168 141.768C154.871 141.59 147.19 143.109 145.403 144.093C143.036 144.942 139.821 146.73 136.516 148.294C143.661 148.383 161.614 148.651 163.535 150.573C164.696 152.987 158.22 157.501 152.504 160.182C150.003 161.345 148.976 161.613 147.502 162.775C142.813 166.44 143.26 171.669 143.393 174.083C143.93 181.189 143.885 191.916 143.795 205.995Z" fill="#2E3433"/>
<path d="M69.6139 115.088L71.3556 113.345L77.2058 107.356L92.2563 88.6292C93.6855 86.8412 95.8288 85.7687 98.107 85.5902L143.436 82.9082L135.219 97.5677L101.233 98.194C94.9362 103.11 88.594 107.982 82.2974 112.898H82.2524C81.8957 114.373 80.8682 118.485 80.4666 120.005C80.2432 120.899 79.7516 122.06 79.2607 123.134L77.2508 120.675C77.2508 120.586 77.2508 120.452 77.2508 120.362C77.2508 120.362 77.2058 120.452 77.1167 120.541C76.2683 122.016 70.9537 131.402 70.6857 131.312C70.4178 131.178 69.5692 131.357 69.6139 129.793L74.0799 121.882L68.8993 129.614C68.8993 129.614 67.247 129.971 67.8275 127.737C67.8275 127.737 65.6838 128.363 65.9071 126.038L69.3459 119.021L65.7285 124.385C65.5498 124.653 65.1479 124.787 64.8799 124.608C64.8353 124.563 64.7907 124.519 64.746 124.519C63.9868 123.58 65.9072 120.764 69.6139 115.088Z" fill="white" stroke="#2E3433" stroke-width="1.6611" stroke-miterlimit="10" stroke-linecap="round" stroke-linejoin="round"/>
<path d="M81.6721 101.769L89.0403 107.713L87.1653 109.143L79.6172 104.316L81.6721 101.769Z" fill="#2E3433"/>
<path d="M79.4385 105.345C79.4834 107.268 81.046 108.787 82.9667 108.742C84.8867 108.698 86.4058 107.133 86.3608 105.211C86.3158 103.29 84.7533 101.77 82.8326 101.814C80.9126 101.814 79.3935 103.424 79.4385 105.345Z" fill="white" stroke="#2E3433" stroke-width="1.3512" stroke-miterlimit="10" stroke-linecap="round" stroke-linejoin="round"/>
<path d="M180.771 81.7471C185.46 84.4291 189.301 86.7976 192.204 88.6298C192.204 88.6298 201.047 94.2166 212.614 105.838C213.462 106.687 215.07 108.341 214.891 110.396C214.712 112.586 212.524 114.509 210.515 115.089C206.317 116.341 201.717 112.229 198.992 109.86C193.633 105.257 185.818 99.0886 174.43 91.7138C176.529 88.4063 178.627 85.0546 180.771 81.7471Z" fill="white" stroke="#2E3433" stroke-width="1.5" stroke-miterlimit="10" stroke-linecap="round" stroke-linejoin="round"/>
<path d="M104.361 82.6403C114.499 82.0148 124.592 81.3443 134.73 80.7181C134.819 80.7181 134.864 80.7181 134.953 80.6738C138.302 80.1818 142.635 79.6906 147.369 79.3328C152.906 78.9308 158.98 78.7516 164.517 79.1543C164.607 79.1543 164.697 79.1543 164.83 79.1986C168.582 78.6181 174.387 78.2603 180.774 80.4053C184.302 81.5678 187.026 83.1766 190.778 85.8586C195.868 89.4788 202.97 95.1548 210.785 103.602C208.954 105.703 204.667 110.083 197.566 112.541C195.02 113.435 192.653 113.882 190.465 114.105C187.919 114.374 185.731 114.239 184.079 114.061L189.839 138.956C189.839 138.956 189.839 138.956 189.795 138.956C184.927 140.833 179.39 142.576 173.181 143.961C166.885 145.391 160.9 146.196 155.363 146.598C148.887 147.09 143.036 146.956 137.99 146.643C137.811 145.391 137.632 144.14 137.454 142.889C135.756 131.447 134.104 120.05 132.407 108.608H108.872C107.71 106.328 106.594 103.602 105.7 100.429C103.691 93.2326 103.87 86.9311 104.361 82.6403Z" fill="#635BFF" stroke="#2E3433" stroke-width="1.5" stroke-miterlimit="10"/>
<path d="M179.164 97.0752C179.164 97.0752 179.432 97.8792 180.682 103.242L183.764 113.88C185.461 114.148 187.113 114.417 190.507 114.059L179.164 97.0752Z" fill="#2E3433"/>
<path d="M169.832 156.385C169.877 158.352 170.011 160.497 170.279 162.777C170.324 162.955 170.324 163.179 170.369 163.357C170.77 166.53 171.44 169.391 172.11 171.894C177.201 171 222.084 163.044 228.962 153.703C229.632 152.765 231.195 150.664 231.329 148.116C231.329 147.669 231.329 147.222 231.24 146.775C230.57 142.932 226.327 140.787 224.898 140.071C212.393 133.725 194.172 142.575 186.222 146.463C181.578 148.608 175.906 151.826 169.832 156.385Z" fill="#96999E" stroke="#2E3433" stroke-width="1.5" stroke-miterlimit="10"/>
<path d="M127.672 228.971C127.716 229.641 127.895 230.312 128.342 231.071C131.468 236.613 141.561 238.49 143.168 235.988C143.482 235.496 143.571 234.826 143.302 233.976C143.258 233.753 143.168 233.529 143.124 233.306C140.31 233.708 135.577 232.993 127.672 228.971Z" fill="#2E3433"/>
<path d="M156.387 181.014C156.476 181.818 156.61 182.577 156.788 183.248C157.816 187.36 160.897 189.952 162.952 189.952C164.559 189.952 162.594 187.404 162.371 183.784C160.987 183.516 159.022 182.757 156.387 181.014Z" fill="#2E3433"/>
<path d="M170.367 163.312C170.769 166.485 171.439 169.346 172.109 171.849C177.2 170.955 222.084 162.999 228.961 153.658C229.631 152.719 231.193 150.619 231.328 148.071C229.05 151.557 222.843 157.725 206.81 161.435C184.078 166.709 177.021 170.284 170.367 163.312Z" fill="#2E3433"/>
<path d="M147.098 80.5837C147.098 83.4892 151.073 85.8134 155.985 85.8134C160.898 85.8134 164.828 83.4892 164.828 80.5837C164.828 80.0924 164.694 79.6004 164.471 79.1534C158.933 78.7064 152.904 78.9299 147.366 79.3327C147.188 79.7347 147.098 80.1367 147.098 80.5837Z" fill="#2E3433"/>
<path d="M167.597 133.636C168.669 132.564 170.009 131.491 170.009 131.491L181.575 124.787C184.21 124.116 186.89 123.446 189.525 122.775C194.214 117.681 206.049 105.39 210.738 105.39C216.633 105.39 217.213 115.356 213.507 117.457C206.674 121.569 199.796 125.725 192.964 129.837C191.802 131.223 190.641 132.564 189.48 133.949C187.024 135.379 184.612 136.809 182.156 138.195C182.067 138.866 181.575 142.933 180.325 143.067C180.013 143.112 179.298 142.933 179.119 142.441C179.03 142.173 179.074 141.949 179.119 141.816C179.566 140.251 179.432 138.552 179.744 136.944L182.781 133.905C181.575 134.932 180.325 135.915 179.119 136.944C178.94 137.391 178.717 138.016 178.493 138.776C177.868 141.011 178.048 141.905 177.288 142.441C176.708 142.843 175.859 142.843 175.457 142.441C175.055 142.039 175.278 141.279 175.457 140.609C175.769 139.491 176.172 137.927 176.663 135.737C177.467 134.709 178.271 133.725 179.119 132.698L175.457 136.362C174.832 137.301 174.43 138.195 174.251 138.821C173.715 140.43 173.804 141.503 173.045 141.86C172.733 142.039 172.241 142.039 171.839 141.86C171.839 141.86 171.482 141.681 171.214 141.234C170.768 140.475 171.527 137.838 173.045 134.53L176.708 130.865C175.099 131.67 173.447 132.474 171.839 133.323C171.839 133.323 170.723 134.441 169.473 135.469C167.15 135.737 167.597 133.636 167.597 133.636Z" fill="white" stroke="#2E3433" stroke-width="1.6611" stroke-miterlimit="10" stroke-linecap="round" stroke-linejoin="round"/>
<path d="M237.581 111.113L225.969 141.282C225.924 141.416 225.79 141.505 225.656 141.505L179.299 143.472C179.032 143.472 178.853 143.114 178.987 142.801L192.117 112.543C192.162 112.409 192.296 112.32 192.429 112.32L237.268 110.442C237.536 110.442 237.715 110.8 237.581 111.113Z" fill="#2E3433"/>
<path d="M156.699 144.457L157.682 141.284L162.282 141.105L163.086 144.368L156.699 144.457Z" fill="#2E3433"/>
<path d="M162.328 144.227L163.311 141.054L167.911 140.875L168.715 144.138L162.328 144.227Z" fill="#2E3433"/>
<path d="M168.223 144.004L169.205 140.831L173.805 140.607L174.609 143.87L168.223 144.004Z" fill="#2E3433"/>
<path d="M173.941 143.739L174.924 140.566L179.524 140.388L180.327 143.65L173.941 143.739Z" fill="#2E3433"/>
<path d="M225.828 105.889L154.393 108.904L154.203 104.395L225.639 101.379L225.828 105.889Z" fill="#2E3433"/>
<path d="M108.826 83.4431C108.871 82.8626 108.915 82.5491 108.915 82.5491L108.469 82.5049C108.469 82.5049 108.424 82.8176 108.379 83.3989L108.826 83.4431Z" fill="#2E3433"/>
<path d="M112.575 106.642L112.933 106.373C112.62 105.926 112.352 105.435 112.039 104.943L111.638 105.166C111.95 105.658 112.263 106.195 112.575 106.642ZM110.923 103.602L111.325 103.423C111.102 102.931 110.878 102.395 110.699 101.859L110.298 101.993C110.476 102.574 110.699 103.111 110.923 103.602ZM109.717 100.384L110.164 100.25C109.985 99.714 109.851 99.1777 109.717 98.5965L109.27 98.6857C109.404 99.3112 109.539 99.8475 109.717 100.384ZM108.869 97.077L109.315 96.9877C109.226 96.4507 109.092 95.8702 109.047 95.334L108.601 95.3782C108.69 95.9595 108.779 96.4957 108.869 97.077ZM108.378 93.6802L108.824 93.6352C108.779 93.099 108.734 92.5177 108.69 91.9372L108.244 91.9815C108.288 92.5177 108.333 93.099 108.378 93.6802ZM108.154 90.2385H108.601C108.601 89.7022 108.556 89.121 108.556 88.6297V88.5405H108.109V88.6297C108.109 89.121 108.109 89.6572 108.154 90.2385ZM108.601 86.7967C108.601 86.1712 108.645 85.59 108.69 85.0987L108.244 85.0537C108.199 85.5457 108.199 86.1262 108.154 86.7525L108.601 86.7967Z" fill="#2E3433"/>
<path d="M114.184 108.74L114.496 108.427C114.318 108.204 114.094 107.98 113.916 107.757L113.559 108.025C113.782 108.293 114.005 108.517 114.184 108.74Z" fill="#2E3433"/>
<path d="M187.113 110.395C187.694 110.395 188.319 110.35 188.9 110.261L188.856 109.814C188.275 109.859 187.694 109.903 187.113 109.948V110.395ZM190.686 109.992C191.267 109.903 191.847 109.769 192.428 109.59L192.294 109.143C191.713 109.277 191.133 109.412 190.552 109.546L190.686 109.992ZM194.215 109.099C194.795 108.92 195.331 108.696 195.911 108.473L195.733 108.071C195.197 108.294 194.616 108.518 194.081 108.696L194.215 109.099ZM197.52 107.713C198.055 107.445 198.591 107.177 199.127 106.864L198.904 106.462C198.368 106.775 197.876 107.042 197.341 107.311L197.52 107.713ZM200.645 105.97C201.137 105.657 201.628 105.299 202.12 104.942L201.851 104.585C201.36 104.942 200.869 105.255 200.378 105.568L200.645 105.97ZM203.549 103.825C203.995 103.467 204.486 103.065 204.933 102.662L204.62 102.35C204.174 102.752 203.727 103.154 203.28 103.512L203.549 103.825ZM206.228 101.411C207.032 100.607 207.434 100.07 207.434 100.07L207.076 99.8018C207.076 99.8018 206.675 100.338 205.87 101.099L206.228 101.411Z" fill="#2E3433"/>
<path d="M172.422 98.7737C169.295 98.5952 166.17 98.4609 163.043 98.3717C159.917 98.3267 156.791 98.3267 153.62 98.4609C152.057 98.5052 150.494 98.6394 148.887 98.8629C148.082 98.9972 147.323 99.0864 146.519 99.3549C146.296 99.3992 146.117 99.4884 145.894 99.5784C145.671 99.7119 145.492 99.7569 145.269 99.9354C145.179 100.025 145.001 100.115 144.867 100.338C144.778 100.472 144.733 100.695 144.822 100.919C144.867 101.053 144.912 101.098 144.956 101.142C145.001 101.187 145.046 101.276 145.09 101.321C145.403 101.589 145.626 101.634 145.849 101.679C146.698 101.902 147.502 101.992 148.261 102.036C149.065 102.125 149.824 102.17 150.628 102.215C152.191 102.305 153.754 102.349 155.317 102.394C158.443 102.483 161.57 102.528 164.651 102.707C166.17 102.796 167.777 102.885 169.162 103.288C169.34 103.332 169.474 103.377 169.564 103.466L169.609 103.511C169.564 103.466 169.564 103.422 169.564 103.377C169.609 103.288 169.564 103.422 169.43 103.511C169.34 103.601 169.162 103.69 169.028 103.779C168.403 104.137 167.688 104.405 166.974 104.629C164.025 105.567 160.945 106.193 157.907 106.729C156.389 106.997 154.826 107.266 153.307 107.489C152.548 107.579 151.744 107.668 150.985 107.757C150.226 107.802 149.422 107.891 148.663 107.757L148.618 107.846C149.377 108.026 150.182 107.936 150.985 107.936C151.789 107.891 152.548 107.846 153.307 107.757C154.871 107.623 156.434 107.399 157.952 107.176C161.034 106.685 164.115 106.148 167.152 105.254C167.911 105.031 168.626 104.762 169.34 104.405C169.653 104.226 170.055 104.003 170.189 103.556C170.234 103.332 170.055 103.109 169.876 103.019C169.698 102.93 169.519 102.841 169.34 102.796C167.822 102.349 166.259 102.305 164.695 102.17C161.57 101.947 158.443 101.902 155.317 101.813C153.754 101.768 152.191 101.723 150.628 101.634C149.065 101.545 147.502 101.5 145.983 101.142C145.805 101.098 145.626 101.009 145.492 100.919C145.358 100.829 145.448 100.651 145.626 100.562C145.76 100.427 145.983 100.382 146.117 100.293L146.653 100.115C147.412 99.8912 148.172 99.7569 148.931 99.6227C150.494 99.3992 152.012 99.2649 153.576 99.1757C159.828 98.8187 166.08 98.8629 172.333 98.9972L172.422 98.7737Z" fill="#2E3433"/>
<path d="M112.801 108.563H132.406C134.103 120.183 135.8 131.849 137.497 143.469C138.569 141.95 136.917 116.921 136.425 108.563C136.336 107.133 136.291 106.194 136.291 105.926C136.291 105.434 134.55 105.434 132.005 105.657C126.243 106.194 116.462 107.892 112.801 108.563Z" fill="#2E3433"/>
<path d="M148.262 80.807C155.497 88.4052 162.285 83.2205 162.285 83.2205C162.329 81.701 162.329 80.1365 162.374 78.572C162.418 75.6222 162.508 72.7172 162.552 69.7673C162.597 68.1136 162.641 66.5046 162.641 64.8509C159.247 63.2866 155.853 61.7223 152.459 60.1133L148.262 80.807Z" fill="white"/>
<path d="M152.055 67.1306C152.859 70.2593 164.649 75.5783 166.971 75.2205C169.294 74.8628 173.492 65.4323 173.223 61.812C173.045 59.5325 173.492 54.482 173.849 51.0853C172.108 49.4762 168.267 47.1968 161.969 48.3589C157.101 49.2528 153.886 57.2978 153.886 57.2978C153.886 57.2978 151.251 64.0467 152.055 67.1306Z" fill="white"/>
<path d="M164.247 50.3242C168.981 53.5868 175.099 52.5589 177.6 49.028C179.521 46.391 179.252 42.5026 176.93 39.7762C174.608 37.0498 170.588 36.0219 167.06 37.2733C166.078 36.0666 164.292 34.2787 161.523 33.3402C154.422 30.882 144.954 35.4855 144.73 39.5527C144.686 40.3126 144.954 41.2958 146.115 42.5026C144.552 42.4579 142.9 42.6814 141.783 43.7093C138.3 46.7485 140.845 55.5981 146.025 60.6486C149.42 63.956 149.777 63.509 152.01 64.0007C152.412 61.8553 153.618 56.5367 154.734 57.1177C155.225 56.4026 156.164 53.8997 156.699 53.1846C158.664 50.9499 160.853 49.9219 164.247 50.3242Z" fill="#2E3433"/>
<path d="M154.333 58.5483C154.512 58.9505 154.69 59.4869 154.78 60.2019C154.958 61.3194 154.735 62.1685 154.601 62.9283C154.333 64.1351 154.065 65.3865 153.261 65.5653C153.038 65.61 152.814 65.5653 152.681 65.5206C152.234 65.2524 146.518 61.23 147.455 57.0287C147.5 56.7605 147.991 54.7939 149.376 54.4364C150.849 54.0341 152.948 55.5984 154.333 58.5483Z" fill="white"/>
<path d="M162.553 83.5332C162.642 83.444 162.686 83.3547 162.686 83.2205L162.865 74.639C164.294 75.2202 166.393 75.8907 167.376 75.7115H167.42C170.1 75.2202 174.253 65.6555 173.985 61.9011C173.807 59.5769 174.297 54.2136 174.611 51.2191C174.611 51.085 174.566 50.9956 174.477 50.9062C173.137 49.6547 169.251 46.9284 162.239 48.0905C158.175 48.7609 156.434 52.0682 154.826 55.2416C154.603 55.7333 154.335 56.1802 154.067 56.6718C152.549 54.3477 150.271 53.7667 149.244 53.9901C147.636 54.3924 147.1 56.493 147.011 56.8953C146.296 60.1133 149.155 63.1526 151.03 64.7615L147.77 80.7177C147.726 80.852 147.77 80.9412 147.859 81.0747C151.834 85.2762 155.72 85.679 158.489 85.142C160.944 84.6957 162.508 83.5782 162.553 83.5332ZM151.968 64.7168C152.013 64.5827 151.923 64.4487 151.834 64.3593C150.092 62.9291 147.234 60.0239 147.904 57.1187C147.949 56.8953 148.395 55.1075 149.511 54.7946C150.226 54.6158 152.504 55.1969 153.755 57.6998C153.844 57.8339 153.978 57.9233 154.111 57.9233C154.29 57.9233 154.425 57.8339 154.514 57.6998C154.915 56.9847 155.273 56.2696 155.63 55.5545C157.238 52.4258 158.801 49.4313 162.419 48.8503C168.805 47.8223 172.378 50.1464 173.762 51.3532C173.405 55.0181 173.003 59.7557 173.137 61.9904C173.405 65.5214 169.296 74.5943 167.242 74.9519C167.242 74.9519 167.242 74.9519 167.197 74.9519C166.706 75.041 165.188 74.7284 162.553 73.7005C162.419 73.6558 162.284 73.6558 162.15 73.7452C162.016 73.8346 161.972 73.9239 161.972 74.058L161.793 83.042C160.766 83.7567 154.96 87.1985 148.663 80.7177L151.968 64.7168Z" fill="#2E3433"/>
<path d="M153.305 68.6055C153.261 69.7228 153.529 70.8402 154.556 72.8514C156.744 77.1865 161.568 78.3933 162.372 78.6168C162.416 75.667 162.505 76.6503 162.595 73.7007C161.969 73.3878 157.191 72.0023 153.305 68.6055Z" fill="#2E3433"/>
<path d="M147.1 41.5187C147.1 41.5187 140.804 36.1106 135.891 40.0438C135.891 40.0438 139.687 36.9152 145.984 42.3232C152.281 47.7312 147.1 41.5187 147.1 41.5187Z" fill="#2E3433"/>
<path d="M143.703 42.2353C143.703 42.2353 137.049 43.7997 137.674 48.6267C137.674 48.6267 137.138 44.8723 143.793 43.3081C150.447 41.7437 143.703 42.2353 143.703 42.2353Z" fill="#2E3433"/>
<path d="M173.671 38.616C174.475 39.0182 175.28 39.5099 175.95 40.0462C176.664 40.5826 177.289 41.2083 177.78 41.8787C178.271 42.5938 178.674 43.3089 178.986 44.1134C179.299 44.9179 179.522 45.7225 179.477 46.4822C179.477 47.2867 179.254 48.0466 178.808 48.6723C178.361 49.3427 177.646 49.8343 176.887 50.2366C176.128 50.6389 175.235 50.907 174.341 51.0411C173.448 51.2199 172.51 51.2199 171.617 51.2199V51.2646C173.448 51.5327 175.369 51.354 177.065 50.5942C177.915 50.1919 178.674 49.6555 179.21 48.9405C179.745 48.2254 180.058 47.3314 180.014 46.4822C180.014 45.5884 179.745 44.7391 179.433 43.9347C179.075 43.1302 178.674 42.3256 178.093 41.6552C176.976 40.2697 175.369 39.2417 173.671 38.5713V38.616Z" fill="#2E3433"/>
<path d="M164.382 69.5433C162.417 69.007 162.64 66.1465 162.64 66.1465C162.64 66.1465 164.248 68.0684 167.195 68.8282" fill="#2E3433"/>
</g>
<defs>
<clipPath id="clip0_309_27828">
<rect width="320" height="243" fill="white"/>
</clipPath>
</defs>
</svg>
