<svg width="24" height="24" viewBox="0 0 24 24" fill="none" xmlns="http://www.w3.org/2000/svg">
<path fill-rule="evenodd" clip-rule="evenodd" d="M10.0553 2.34439C11.1766 1.38885 12.8258 1.38885 13.947 2.34439L15.2185 3.42792C15.3787 3.56441 15.5778 3.6469 15.7876 3.66364L17.4528 3.79653C18.9213 3.91372 20.0875 5.07985 20.2047 6.54838L20.3375 8.21362C20.3543 8.42338 20.4368 8.62252 20.5733 8.78269L21.6568 10.0542C22.6123 11.1754 22.6123 12.8246 21.6568 13.9459L20.5733 15.2173C20.4368 15.3775 20.3543 15.5766 20.3375 15.7864L20.2047 17.4516C20.0875 18.9202 18.9213 20.0863 17.4528 20.2035L15.7876 20.3364C15.5778 20.3531 15.3787 20.4356 15.2185 20.5721L13.947 21.6556C12.8258 22.6112 11.1766 22.6112 10.0553 21.6556L8.78386 20.5721C8.6237 20.4356 8.42456 20.3531 8.21479 20.3364L6.54955 20.2035C5.08102 20.0863 3.91489 18.9202 3.7977 17.4516L3.66482 15.7864C3.64808 15.5766 3.56559 15.3775 3.4291 15.2173L2.34556 13.9459C1.39002 12.8246 1.39002 11.1754 2.34556 10.0542L3.4291 8.78269C3.56559 8.62252 3.64808 8.42338 3.66482 8.21362L3.7977 6.54838C3.91489 5.07985 5.08102 3.91372 6.54955 3.79653L8.21479 3.66364C8.42456 3.6469 8.6237 3.56441 8.78386 3.42792L10.0553 2.34439ZM12.6498 3.86662C12.276 3.5481 11.7263 3.5481 11.3526 3.86662L10.0811 4.95015C9.60061 5.35963 9.00319 5.60708 8.37389 5.6573L6.70865 5.79019C6.21914 5.82925 5.83043 6.21796 5.79136 6.70747L5.65848 8.37271C5.60826 9.00201 5.3608 9.59943 4.95133 10.0799L3.86779 11.3514C3.54928 11.7251 3.54928 12.2749 3.86779 12.6486L4.95133 13.9201C5.3608 14.4006 5.60826 14.998 5.65848 15.6273L5.79136 17.2925C5.83043 17.7821 6.21914 18.1708 6.70865 18.2098L8.37389 18.3427C9.00319 18.3929 9.60061 18.6404 10.0811 19.0499L11.3526 20.1334C11.7263 20.4519 12.276 20.4519 12.6498 20.1334L13.9213 19.0499C14.4018 18.6404 14.9992 18.3929 15.6285 18.3427L17.2937 18.2098C17.7832 18.1708 18.1719 17.7821 18.211 17.2925L18.3439 15.6273C18.3941 14.998 18.6416 14.4006 19.051 13.9201L20.1346 12.6486C20.4531 12.2749 20.4531 11.7251 20.1346 11.3514L19.051 10.0799C18.6416 9.59943 18.3941 9.00201 18.3439 8.37271L18.211 6.70747C18.1719 6.21796 17.7832 5.82925 17.2937 5.79019L15.6285 5.6573C14.9992 5.60708 14.4018 5.35962 13.9213 4.95015L12.6498 3.86662Z" fill="#6F767E"/>
<path d="M11 9.5C11 10.3284 10.3284 11 9.5 11C8.67157 11 8 10.3284 8 9.5C8 8.67157 8.67157 8 9.5 8C10.3284 8 11 8.67157 11 9.5Z" fill="#6F767E"/>
<path d="M16 14.5C16 15.3284 15.3284 16 14.5 16C13.6716 16 13 15.3284 13 14.5C13 13.6716 13.6716 13 14.5 13C15.3284 13 16 13.6716 16 14.5Z" fill="#6F767E"/>
<path fill-rule="evenodd" clip-rule="evenodd" d="M15.1402 8.23178C15.5645 8.58535 15.6218 9.21591 15.2682 9.64019L10.2682 15.6402C9.91468 16.0645 9.28412 16.1218 8.85984 15.7682C8.43556 15.4147 8.37824 14.7841 8.7318 14.3598L13.7318 8.35982C14.0854 7.93554 14.7159 7.87822 15.1402 8.23178Z" fill="#6F767E"/>
</svg>
