<svg width="107" height="107" viewBox="0 0 107 107" fill="none" xmlns="http://www.w3.org/2000/svg">
<g opacity="0.05">
<circle cx="3.46843" cy="3.46843" r="3.46843" fill="#0F001A"/>
<circle cx="3.46843" cy="23.3688" r="3.46843" fill="#0F001A"/>
<circle cx="3.46843" cy="43.2682" r="3.46843" fill="#0F001A"/>
<circle cx="3.46843" cy="63.1686" r="3.46843" fill="#0F001A"/>
<circle cx="3.46843" cy="83.069" r="3.46843" fill="#0F001A"/>
<circle cx="3.46843" cy="102.969" r="3.46843" fill="#0F001A"/>
<circle cx="23.3669" cy="3.46843" r="3.46843" fill="#0F001A"/>
<circle cx="23.3669" cy="23.3688" r="3.46843" fill="#0F001A"/>
<circle cx="23.3669" cy="43.2682" r="3.46843" fill="#0F001A"/>
<circle cx="23.3669" cy="63.1686" r="3.46843" fill="#0F001A"/>
<circle cx="23.3669" cy="83.069" r="3.46843" fill="#0F001A"/>
<circle cx="23.3669" cy="102.969" r="3.46843" fill="#0F001A"/>
<circle cx="43.2692" cy="3.46843" r="3.46843" fill="#0F001A"/>
<circle cx="43.2692" cy="23.3688" r="3.46843" fill="#0F001A"/>
<circle cx="43.2692" cy="43.2682" r="3.46843" fill="#0F001A"/>
<circle cx="43.2692" cy="63.1686" r="3.46843" fill="#0F001A"/>
<circle cx="43.2692" cy="83.069" r="3.46843" fill="#0F001A"/>
<circle cx="43.2692" cy="102.969" r="3.46843" fill="#0F001A"/>
<circle cx="63.1677" cy="3.46843" r="3.46843" fill="#0F001A"/>
<circle cx="83.07" cy="3.46843" r="3.46843" fill="#0F001A"/>
<circle cx="102.968" cy="3.46843" r="3.46843" fill="#0F001A"/>
<circle cx="63.1677" cy="23.3688" r="3.46843" fill="#0F001A"/>
<circle cx="83.07" cy="23.3688" r="3.46843" fill="#0F001A"/>
<circle cx="102.968" cy="23.3688" r="3.46843" fill="#0F001A"/>
<circle cx="63.1677" cy="43.2682" r="3.46843" fill="#0F001A"/>
<circle cx="83.07" cy="43.2682" r="3.46843" fill="#0F001A"/>
<circle cx="102.968" cy="43.2682" r="3.46843" fill="#0F001A"/>
<circle cx="63.1677" cy="63.1686" r="3.46843" fill="#0F001A"/>
<circle cx="63.1677" cy="83.069" r="3.46843" fill="#0F001A"/>
<circle cx="63.1677" cy="102.969" r="3.46843" fill="#0F001A"/>
<circle cx="83.07" cy="63.1686" r="3.46843" fill="#0F001A"/>
<circle cx="83.07" cy="83.069" r="3.46843" fill="#0F001A"/>
<circle cx="83.07" cy="102.969" r="3.46843" fill="#0F001A"/>
<circle cx="102.968" cy="63.1686" r="3.46843" fill="#0F001A"/>
<circle cx="102.968" cy="83.069" r="3.46843" fill="#0F001A"/>
<circle cx="102.968" cy="102.969" r="3.46843" fill="#0F001A"/>
</g>
</svg>
