<svg width="22" height="20" viewBox="0 0 22 20" fill="none" xmlns="http://www.w3.org/2000/svg">
<path fill-rule="evenodd" clip-rule="evenodd" d="M7.51958 -6.69388e-10C7.50683 -0.000244745 7.49411 -0.000243536 7.48143 -6.69388e-10H5.55367C4.31643 -6.69388e-10 3.20609 0.759545 2.75766 1.91266L0.969714 6.51023C0.535327 7.62723 1.01258 8.85223 2.00146 9.41213V17C2.00146 18.6568 3.34461 20 5.00147 20H17.0015C18.6583 20 20.0015 18.6568 20.0015 17V9.41214C20.9904 8.85224 21.4676 7.62723 21.0332 6.51023L19.2453 1.91266C18.7969 0.759547 17.6865 -6.69388e-10 16.4493 -6.69388e-10H14.5216C14.5089 -0.000243536 14.4961 -0.000244745 14.4834 -6.69388e-10H7.51958ZM18.0015 9.73843C17.5529 9.68589 17.1133 9.55593 16.703 9.35078L16.0019 9.00023L16.0009 9.00023L15.3584 9.25722C14.1664 9.73404 12.8366 9.73404 11.6445 9.25722L11.0015 9L10.3584 9.25722C9.16637 9.73404 7.83657 9.73404 6.64452 9.25722L6.00205 9.00023L6.00101 9.00023L5.2999 9.35078C4.88961 9.55593 4.45 9.68589 4.00146 9.73843V17C4.00146 17.5523 4.44918 18 5.00147 18H7.00146V15C7.00146 13.3431 8.34461 12 10.0015 12H12.0015C13.6583 12 15.0015 13.3431 15.0015 15V18H17.0015C17.5537 18 18.0015 17.5523 18.0015 17V9.73843ZM16.8959 7.21115C16.8808 7.2036 16.8657 7.19626 16.8504 7.18912L15.7385 2H16.4493C16.8617 2 17.2318 2.25318 17.3813 2.63755L19.1692 7.23512C19.2466 7.4341 19.1319 7.65585 18.9247 7.70763C18.4791 7.81904 18.0083 7.76736 17.5975 7.56193L16.8959 7.21115ZM14.8317 7.31382L13.6931 2H12.0015V7.24593L12.3873 7.40027C13.1025 7.68636 13.9004 7.68636 14.6156 7.40027L14.8317 7.31382ZM10.0015 2H8.30991L7.17123 7.31384L7.3873 7.40027C8.10253 7.68636 8.90041 7.68636 9.61564 7.40027L10.0015 7.24594V2ZM5.15256 7.1891L6.26451 2H5.55367C5.14126 2 4.77114 2.25318 4.62167 2.63755L2.83372 7.23512C2.75634 7.4341 2.87107 7.65585 3.07819 7.70763C3.52383 7.81904 3.99462 7.76736 4.40548 7.56193L5.10704 7.21115C5.12214 7.2036 5.13731 7.19625 5.15256 7.1891ZM13.0015 15V18H9.00146V15C9.00146 14.4477 9.44918 14 10.0015 14H12.0015C12.5537 14 13.0015 14.4477 13.0015 15Z" fill="rgba(45, 96, 255, 1)"/>
</svg>
